Coordinates
version=1
nRows=6
nColumns=36
inDegrees=yes

Units are S.I. units (second, meters, Newtons, ...)
If the header above contains a line with 'inDegrees', this indicates whether rotational values are in degrees (yes) or radians (no).

endheader
time	pelvis_tilt	pelvis_list	pelvis_rotation	pelvis_tx	pelvis_ty	pelvis_tz	hip_flexion_r	hip_adduction_r	hip_rotation_r	knee_angle_r	knee_angle_r_beta	ankle_angle_r	subtalar_angle_r	mtp_angle_r	hip_flexion_l	hip_adduction_l	hip_rotation_l	knee_angle_l	knee_angle_l_beta	ankle_angle_l	subtalar_angle_l	mtp_angle_l	lumbar_extension	lumbar_bending	lumbar_rotation	arm_flex_r	arm_add_r	arm_rot_r	elbow_flex_r	pro_sup_r	arm_flex_l	arm_add_l	arm_rot_l	elbow_flex_l	pro_sup_l
      9.84000000	    -18.79453100	      1.25369445	     -2.16266598	     -0.25580675	      0.95338559	     -0.56881915	     48.60178567	     -3.56567694	     -0.68867843	     49.15613088	      0.85793633	     19.48545776	    -10.25892979	     -7.49999987	     50.34113341	    -20.37020724	    -12.80028712	     50.23042153	      0.87668624	      7.73762576	      7.31716990	     -7.49999987	    -18.26814862	      6.39288156	     -1.66668428	      5.65548333	    -12.52664602	     -9.56755908	     48.89343143	    101.75111364	     -4.52003531	     -7.98971699	    -13.29665251	     51.68251611	     84.47224096
      9.85000000	    -18.33758785	      1.41829592	     -2.05695861	     -0.25384523	      0.96020309	     -0.56651164	     47.10311356	     -3.51941750	     -0.52223085	     47.49371607	      0.82892172	     18.74780904	    -10.41397321	     -7.49999987	     48.97726730	    -20.27706005	    -13.43456337	     48.79634819	      0.85165694	      6.52640922	      7.85587930	     -7.49999987	    -18.12054432	      6.03715300	     -1.69870325	      5.41479646	    -12.59901210	     -9.22630336	     48.38948484	    101.88978586	     -4.80147287	     -7.98325389	    -13.14045946	     51.53339905	     84.54317630
      9.86000000	    -17.97271716	      1.56886956	     -1.95428146	     -0.25194419	      0.96649742	     -0.56433228	     45.72705442	     -3.44846767	     -0.35500154	     45.85175409	      0.80026408	     18.03154137	    -10.65140771	     -7.49999987	     47.74970327	    -20.14700652	    -13.93813591	     47.42018215	      0.82763831	      5.50222193	      8.43308140	     -7.49999987	    -17.85933809	      5.68059697	     -1.76454609	      5.19339499	    -12.59700623	     -8.97867751	     47.90002982	    102.01846468	     -5.12113318	     -7.87900988	    -12.99300060	     51.41059029	     84.59963657
      9.87000000	    -17.45365296	      1.80458852	     -1.89447066	     -0.24985713	      0.97277787	     -0.56242933	     44.20546965	     -3.48735044	     -0.18610615	     44.23369438	      0.77202361	     17.11531541	    -11.18866595	     -7.49999987	     46.27072188	    -19.91154663	    -14.56727136	     45.99799291	      0.80281643	      4.69593743	      8.93075650	     -7.49999987	    -17.74902436	      5.23550248	     -1.89104637	      5.14891924	    -12.62982454	     -8.51321279	     47.12641049	    102.37374188	     -5.47605817	     -7.83342014	    -12.78984281	     51.20301997	     84.74156185
      9.88000000	    -17.06845874	      1.95455562	     -1.69833404	     -0.24783887	      0.97852182	     -0.56097411	     42.86252330	     -3.71843287	     -0.50642915	     42.71820702	      0.74557336	     16.55065929	    -10.80063859	     -7.49999987	     45.05404894	    -19.57993815	    -14.82892279	     44.59788503	      0.77837993	      3.72587739	      9.55244986	     -7.49999987	    -17.49630129	      4.94892778	     -2.00651751	      4.87609664	    -12.69333461	     -8.37609013	     46.76115347	    102.46864355	     -5.74969981	     -7.69279238	    -12.73221749	     51.02026913	     84.76798280
      9.89000000	    -16.50258781	      2.04219592	     -1.60589918	     -0.24574353	      0.98414827	     -0.55921882	     41.33954277	     -3.82650503	     -0.86174801	     41.21147383	      0.71927591	     16.04176275	    -10.55372291	     -7.49999987	     43.61497863	    -19.42508431	    -15.25705994	     43.22878068	      0.75448455	      2.94831946	      9.97858800	     -7.49999987	    -17.44814609	      4.67521778	     -2.07370226	      4.78974572	    -12.72586896	     -8.04820140	     46.15217141	    102.61761044	     -5.99190527	     -7.59190962	    -12.64757779	     50.67910675	     84.79175127
